<svg xmlns="http://www.w3.org/2000/svg" viewBox="0 0 293.333 64" width="293.333" height="64" role="img" fill="none">
<defs><path id="g0" d="M3.0 0.1Q2.0 0.1 1.4 -0.2Q0.8 -0.6 0.5 -1.1L1.1 -1.6Q1.5 -1.1 1.9 -0.9Q2.4 -0.6 3.0 -0.6Q3.8 -0.6 4.2 -0.9Q4.6 -1.3 4.6 -1.9Q4.6 -2.4 4.3 -2.7Q4.0 -3.0 3.3 -3.1L2.5 -3.3Q2.0 -3.4 1.6 -3.5Q1.3 -3.7 1.1 -4.0Q0.9 -4.2 0.8 -4.5Q0.7 -4.8 0.7 -5.2Q0.7 -6.1 1.3 -6.6Q1.9 -7.1 3.0 -7.1Q3.9 -7.1 4.4 -6.8Q5.0 -6.5 5.4 -6.0L4.8 -5.5Q4.5 -5.9 4.1 -6.1Q3.7 -6.4 3.0 -6.4Q2.3 -6.4 1.9 -6.1Q1.5 -5.8 1.5 -5.2Q1.5 -4.7 1.8 -4.4Q2.1 -4.1 2.9 -4.0L3.6 -3.9Q4.1 -3.8 4.5 -3.6Q4.8 -3.4 5.0 -3.2Q5.2 -2.9 5.3 -2.6Q5.4 -2.3 5.4 -1.9Q5.4 -1.0 4.8 -0.4Q4.2 0.1 3.0 0.1Z"/><path id="g1" d="M3.4 -6.2V0.0H2.6V-6.2H0.2V-7.0H5.8V-6.2Z"/><path id="g2" d="M1.6 -7.0V-2.8Q1.6 -2.3 1.7 -1.9Q1.7 -1.5 1.8 -1.2Q2.0 -0.9 2.2 -0.8Q2.5 -0.6 3.0 -0.6Q3.5 -0.6 3.8 -0.8Q4.0 -0.9 4.2 -1.2Q4.3 -1.5 4.3 -1.9Q4.4 -2.3 4.4 -2.8V-7.0H5.2V-3.0Q5.2 -2.2 5.1 -1.6Q5.0 -1.1 4.8 -0.7Q4.6 -0.3 4.1 -0.1Q3.7 0.1 3.0 0.1Q2.3 0.1 1.9 -0.1Q1.4 -0.3 1.2 -0.7Q1.0 -1.1 0.9 -1.6Q0.8 -2.2 0.8 -3.0V-7.0Z"/><path id="g3" d="M1.0 -7.0H2.9Q4.2 -7.0 4.8 -6.1Q5.4 -5.2 5.4 -3.5Q5.4 -1.8 4.8 -0.9Q4.2 0.0 2.9 0.0H1.0ZM2.9 -0.7Q3.7 -0.7 4.1 -1.3Q4.5 -1.9 4.5 -3.0V-4.0Q4.5 -5.1 4.1 -5.7Q3.7 -6.2 2.9 -6.2H1.8V-0.7Z"/><path id="g4" d="M0.8 0.0V-0.7H2.6V-6.3H0.8V-7.0H5.2V-6.3H3.4V-0.7H5.2V0.0Z"/><path id="g5" d="M3.0 0.1Q2.4 0.1 1.9 -0.1Q1.4 -0.4 1.1 -0.8Q0.8 -1.3 0.7 -2.0Q0.6 -2.6 0.6 -3.5Q0.6 -4.3 0.7 -5.0Q0.8 -5.7 1.1 -6.2Q1.4 -6.6 1.9 -6.9Q2.4 -7.1 3.0 -7.1Q3.6 -7.1 4.1 -6.9Q4.6 -6.6 4.9 -6.2Q5.2 -5.7 5.3 -5.0Q5.4 -4.3 5.4 -3.5Q5.4 -2.6 5.3 -2.0Q5.2 -1.3 4.9 -0.8Q4.6 -0.4 4.1 -0.1Q3.6 0.1 3.0 0.1ZM3.0 -0.6Q3.4 -0.6 3.7 -0.8Q4.0 -0.9 4.2 -1.2Q4.4 -1.5 4.5 -2.0Q4.5 -2.4 4.5 -2.9V-4.1Q4.5 -4.6 4.5 -5.0Q4.4 -5.4 4.2 -5.7Q4.0 -6.0 3.7 -6.2Q3.4 -6.4 3.0 -6.4Q2.6 -6.4 2.3 -6.2Q2.0 -6.0 1.8 -5.7Q1.6 -5.4 1.5 -5.0Q1.4 -4.6 1.4 -4.1V-2.9Q1.4 -2.4 1.5 -2.0Q1.6 -1.5 1.8 -1.2Q2.0 -0.9 2.3 -0.8Q2.6 -0.6 3.0 -0.6Z"/><path id="g6" d="M4.6 -8.8Q4.2 -8.8 4.0 -9.0Q3.8 -9.2 3.8 -9.5V-9.8Q3.8 -10.1 4.0 -10.3Q4.2 -10.5 4.6 -10.5Q5.1 -10.5 5.3 -10.3Q5.5 -10.1 5.5 -9.8V-9.5Q5.5 -9.2 5.3 -9.0Q5.1 -8.8 4.6 -8.8ZM1.5 -1.0H4.1V-6.3H1.5V-7.2H5.2V-1.0H7.6V0.0H1.5Z"/><path id="g7" d="M0.8 0.0V-7.2H1.8V-6.4H1.8Q2.0 -6.8 2.3 -7.1Q2.6 -7.4 3.2 -7.4Q3.9 -7.4 4.2 -7.1Q4.5 -6.8 4.5 -6.3H4.6Q4.8 -6.7 5.2 -7.1Q5.5 -7.4 6.2 -7.4Q7.0 -7.4 7.3 -6.8Q7.6 -6.2 7.6 -5.0V0.0H6.6V-4.8Q6.6 -5.8 6.4 -6.1Q6.2 -6.5 5.7 -6.5Q5.3 -6.5 5.0 -6.2Q4.7 -5.9 4.7 -5.3V0.0H3.7V-4.8Q3.7 -5.8 3.5 -6.1Q3.3 -6.5 2.8 -6.5Q2.4 -6.5 2.1 -6.2Q1.8 -5.9 1.8 -5.3V0.0Z"/><path id="g8" d="M4.2 0.2Q3.4 0.2 2.8 -0.1Q2.2 -0.4 1.8 -0.9Q1.4 -1.4 1.1 -2.1Q0.9 -2.7 0.9 -3.6Q0.9 -4.5 1.1 -5.2Q1.4 -5.9 1.8 -6.4Q2.2 -6.9 2.8 -7.1Q3.4 -7.4 4.2 -7.4Q5.0 -7.4 5.6 -7.1Q6.2 -6.9 6.6 -6.4Q7.0 -5.9 7.3 -5.2Q7.5 -4.5 7.5 -3.6Q7.5 -2.7 7.3 -2.1Q7.0 -1.4 6.6 -0.9Q6.2 -0.4 5.6 -0.1Q5.0 0.2 4.2 0.2ZM4.2 -0.8Q5.1 -0.8 5.7 -1.4Q6.3 -1.9 6.3 -3.1V-4.1Q6.3 -5.3 5.7 -5.9Q5.1 -6.4 4.2 -6.4Q3.3 -6.4 2.7 -5.9Q2.1 -5.3 2.1 -4.1V-3.1Q2.1 -1.9 2.7 -1.4Q3.3 -0.8 4.2 -0.8Z"/><path id="g9" d="M3.5 0.0 0.9 -7.2H2.0L3.1 -4.2L4.2 -0.9H4.2L5.4 -4.2L6.4 -7.2H7.5L4.9 0.0Z"/><path id="g10" d="M6.9 0.0Q6.3 0.0 6.0 -0.3Q5.7 -0.7 5.6 -1.2H5.6Q5.3 -0.5 4.8 -0.2Q4.3 0.2 3.4 0.2Q2.3 0.2 1.6 -0.4Q0.9 -1.0 0.9 -2.0Q0.9 -3.0 1.7 -3.6Q2.4 -4.1 4.0 -4.1H5.6V-4.8Q5.6 -5.6 5.1 -6.0Q4.7 -6.4 3.9 -6.4Q3.1 -6.4 2.7 -6.2Q2.2 -5.9 1.9 -5.4L1.2 -5.9Q1.3 -6.2 1.5 -6.5Q1.8 -6.7 2.1 -7.0Q2.5 -7.2 2.9 -7.3Q3.4 -7.4 3.9 -7.4Q5.2 -7.4 5.9 -6.7Q6.7 -6.1 6.7 -5.0V-1.0H7.7V0.0ZM3.6 -0.8Q4.0 -0.8 4.4 -0.9Q4.7 -1.0 5.0 -1.2Q5.3 -1.3 5.4 -1.6Q5.6 -1.8 5.6 -2.1V-3.3H4.0Q3.0 -3.3 2.6 -3.0Q2.1 -2.7 2.1 -2.2V-1.9Q2.1 -1.3 2.5 -1.1Q2.9 -0.8 3.6 -0.8Z"/><path id="g11" d="M1.3 -10.4H2.5V-6.0H2.5Q3.2 -7.4 4.7 -7.4Q6.1 -7.4 6.8 -6.4Q7.6 -5.4 7.6 -3.6Q7.6 -1.8 6.8 -0.8Q6.1 0.2 4.7 0.2Q3.2 0.2 2.5 -1.2H2.5V0.0H1.3ZM4.3 -0.8Q5.3 -0.8 5.8 -1.4Q6.4 -2.0 6.4 -3.0V-4.2Q6.4 -5.2 5.8 -5.8Q5.3 -6.4 4.3 -6.4Q3.9 -6.4 3.6 -6.3Q3.2 -6.2 3.0 -6.0Q2.7 -5.8 2.6 -5.6Q2.5 -5.3 2.5 -4.9V-2.3Q2.5 -1.9 2.6 -1.7Q2.7 -1.4 3.0 -1.2Q3.2 -1.0 3.6 -0.9Q3.9 -0.8 4.3 -0.8Z"/><path id="g12" d="M1.1 -1.0H3.6V-9.4H1.1V-10.4H4.8V-1.0H7.3V0.0H1.1Z"/><path id="g13" d="M4.3 0.2Q3.5 0.2 2.9 -0.1Q2.3 -0.4 1.9 -0.9Q1.4 -1.4 1.2 -2.1Q0.9 -2.7 0.9 -3.6Q0.9 -4.5 1.2 -5.2Q1.4 -5.9 1.9 -6.4Q2.3 -6.9 2.9 -7.1Q3.5 -7.4 4.3 -7.4Q5.0 -7.4 5.6 -7.1Q6.2 -6.9 6.6 -6.4Q7.0 -5.9 7.2 -5.3Q7.5 -4.6 7.5 -3.9V-3.3H2.1V-3.0Q2.1 -2.5 2.3 -2.1Q2.4 -1.7 2.7 -1.4Q3.0 -1.1 3.4 -1.0Q3.8 -0.8 4.3 -0.8Q5.1 -0.8 5.6 -1.1Q6.1 -1.5 6.4 -2.1L7.2 -1.5Q6.9 -0.8 6.2 -0.3Q5.4 0.2 4.3 0.2ZM4.3 -6.5Q3.8 -6.5 3.4 -6.3Q3.0 -6.1 2.7 -5.8Q2.4 -5.5 2.3 -5.1Q2.1 -4.7 2.1 -4.3V-4.2H6.3V-4.3Q6.3 -4.8 6.1 -5.2Q6.0 -5.6 5.7 -5.9Q5.4 -6.2 5.1 -6.3Q4.7 -6.5 4.3 -6.5Z"/><path id="g14" d="M4.5 0.0Q3.7 0.0 3.3 -0.5Q3.0 -0.9 3.0 -1.7V-6.3H0.5V-7.2H2.3Q2.7 -7.2 2.8 -7.4Q3.0 -7.5 3.0 -7.9V-9.8H4.1V-7.2H7.4V-6.3H4.1V-1.0H7.4V0.0Z"/><path id="g15" d="M4.5 0.2Q3.7 0.2 3.1 -0.1Q2.5 -0.4 2.0 -0.9Q1.6 -1.4 1.4 -2.1Q1.2 -2.8 1.2 -3.6Q1.2 -4.5 1.4 -5.2Q1.6 -5.9 2.0 -6.4Q2.5 -6.9 3.1 -7.1Q3.7 -7.4 4.4 -7.4Q5.5 -7.4 6.1 -6.9Q6.8 -6.5 7.1 -5.7L6.2 -5.2Q6.0 -5.8 5.6 -6.1Q5.1 -6.4 4.4 -6.4Q3.9 -6.4 3.6 -6.3Q3.2 -6.1 2.9 -5.8Q2.6 -5.5 2.5 -5.1Q2.4 -4.7 2.4 -4.2V-3.0Q2.4 -2.5 2.5 -2.1Q2.6 -1.7 2.9 -1.4Q3.2 -1.1 3.6 -1.0Q4.0 -0.8 4.5 -0.8Q5.2 -0.8 5.7 -1.1Q6.1 -1.5 6.4 -2.1L7.2 -1.5Q6.9 -0.8 6.2 -0.3Q5.5 0.2 4.5 0.2Z"/><path id="g16" d="M1.4 -10.4H2.5V-6.0H2.5Q2.7 -6.3 2.8 -6.6Q3.0 -6.8 3.2 -7.0Q3.5 -7.2 3.8 -7.3Q4.2 -7.4 4.6 -7.4Q5.7 -7.4 6.4 -6.7Q7.1 -6.0 7.1 -4.6V0.0H6.0V-4.4Q6.0 -5.4 5.6 -5.9Q5.1 -6.4 4.3 -6.4Q3.9 -6.4 3.6 -6.3Q3.3 -6.2 3.1 -6.1Q2.8 -5.9 2.6 -5.6Q2.5 -5.4 2.5 -5.0V0.0H1.4Z"/><path id="g17" d="M4.2 0.1Q3.6 0.1 3.4 -0.1Q3.2 -0.4 3.2 -0.7V-1.0Q3.2 -1.3 3.4 -1.6Q3.6 -1.8 4.2 -1.8Q4.8 -1.8 5.0 -1.6Q5.2 -1.3 5.2 -1.0V-0.7Q5.2 -0.4 5.0 -0.1Q4.8 0.1 4.2 0.1Z"/><path id="g18" d="M8.7 -5.1H7.6V-7.1L7.7 -8.1L7.6 -8.1L6.6 -7.0L1.2 -1.6L0.4 -2.4L5.8 -7.8L7.0 -8.8L7.0 -8.8L5.9 -8.7H4.0V-9.8H8.7Z"/></defs>
<rect x="40.50" y="0.5" width="252.33" height="63" rx="10" stroke="#2B3139" stroke-width="1"/><g id="dock-label" fill="#8A929D"><use href="#g0" x="58.0" y="26.0"/><use href="#g1" x="64.0" y="26.0"/><use href="#g2" x="70.0" y="26.0"/><use href="#g3" x="76.0" y="26.0"/><use href="#g4" x="82.0" y="26.0"/><use href="#g5" x="88.0" y="26.0"/></g><g id="dock-value" fill="#E6EAEF"><use href="#g6" x="58.0" y="47.0"/><use href="#g7" x="66.4" y="47.0"/><use href="#g7" x="74.8" y="47.0"/><use href="#g8" x="83.2" y="47.0"/><use href="#g9" x="91.6" y="47.0"/><use href="#g10" x="100.0" y="47.0"/><use href="#g11" x="108.4" y="47.0"/><use href="#g12" x="116.8" y="47.0"/><use href="#g13" x="125.2" y="47.0"/><use href="#g14" x="133.6" y="47.0"/><use href="#g13" x="142.0" y="47.0"/><use href="#g15" x="150.4" y="47.0"/><use href="#g16" x="158.8" y="47.0"/><use href="#g17" x="167.2" y="47.0"/><use href="#g15" x="175.6" y="47.0"/><use href="#g8" x="184.0" y="47.0"/><use href="#g7" x="192.4" y="47.0"/></g><g id="dock-arrow" fill="#FF7A45"><use href="#g18" x="267.7" y="32.0"/></g>
</svg>
