<svg xmlns="http://www.w3.org/2000/svg" viewBox="0 0 64 64" width="64" height="64" role="img" fill="none">
<defs><linearGradient id="e-ocr-top" x1="0" y1="0" x2="1" y2="1"><stop offset="0" stop-color="#F3E4D0"/><stop offset="1" stop-color="#E4C9A6"/></linearGradient><linearGradient id="e-ocr-left" x1="0" y1="0" x2="0" y2="1"><stop offset="0" stop-color="#E4C9A6"/><stop offset="1" stop-color="#8A3F1C"/></linearGradient><linearGradient id="e-ocr-right" x1="1" y1="0" x2="0" y2="1"><stop offset="0" stop-color="#C45C26"/><stop offset="1" stop-color="#B85A28"/></linearGradient><radialGradient id="e-ocr-glow" cx="40%" cy="30%" r="60%"><stop offset="0" stop-color="#C4923A" stop-opacity="0.45"/><stop offset="1" stop-color="#C45C26" stop-opacity="0"/></radialGradient><filter id="e-ocr-soft" x="-30%" y="-30%" width="160%" height="160%"><feGaussianBlur in="SourceAlpha" stdDeviation="1.8" result="b"/><feOffset dy="1.2" result="o"/><feColorMatrix result="s" values="0 0 0 0 0.45 0 0 0 0 0.22 0 0 0 0 0.08 0 0 0 0.28 0"/><feMerge><feMergeNode in="s"/><feMergeNode in="SourceGraphic"/></feMerge></filter></defs><rect x="4" y="6" width="56" height="52" rx="0" fill="rgba(196,92,38,0.10)"/><g id="e-ocr-float"><g id="e-ocr-glyph" filter="url(#e-ocr-soft)"><path d="M36.0,12.0 L52.0,20.0 L36.0,28.0 L20.0,20.0 Z" fill="url(#e-ocr-top)"/><path d="M36.0,28.0 L52.0,20.0 L52.0,23.0 L36.0,31.0 Z" fill="url(#e-ocr-right)"/><path d="M36.0,28.0 L20.0,20.0 L20.0,23.0 L36.0,31.0 Z" fill="url(#e-ocr-left)"/><path d="M22 28 H50" stroke="#6F6A63" stroke-width="1.2"/><path d="M24 34 H46" stroke="#6F6A63" stroke-width="1.2"/><path d="M26 40 H42" stroke="#6F6A63" stroke-width="1.2"/><line x1="20" y1="22" x2="52" y2="22" stroke="#C45C26" stroke-width="2" stroke-linecap="round"><animate attributeName="y1" values="22;44;22" dur="8s" repeatCount="indefinite"/><animate attributeName="y2" values="22;44;22" dur="8s" repeatCount="indefinite"/></line></g><animateTransform attributeName="transform" type="translate" values="0 0; 0 -2; 0 0" dur="12s" begin="0s" repeatCount="indefinite"/></g>
</svg>
