<svg xmlns="http://www.w3.org/2000/svg" viewBox="0 0 880 52" width="880" height="52" role="img" fill="none">
<g id="datum" transform="translate(8.00 2.00) scale(0.7500)"><circle id="datum-basin" cx="24" cy="28" r="13" fill="rgba(196,92,38,0.10)"/><path id="datum-horizon" pathLength="1" d="M6 9 C 12 18 18 24 24 28" stroke="#C45C26" stroke-width="1.4" stroke-linecap="round" fill="none"/><path id="datum-cross" d="M16 28 H32 M24 21 V35" stroke="#1C1916" stroke-width="1.1" stroke-linecap="round"/><circle id="datum-tick" cx="24" cy="28" r="1.6" fill="#C45C26"><animate attributeName="opacity" values="0.55;1;0.55" dur="12s" repeatCount="indefinite"/><animate attributeName="cy" values="28;26.5;28" dur="12s" repeatCount="indefinite"/></circle></g><path id="strip-label" d="M58.9 23.4H58.8V34.0H57.4V21.4H59.6L63.9 32.0H64.0V21.4H65.4V34.0H63.2Z M72.2 34.2Q71.0 34.2 70.2 33.8Q69.4 33.3 68.9 32.5Q68.3 31.7 68.1 30.5Q67.8 29.3 67.8 27.7Q67.8 26.2 68.1 25.0Q68.3 23.8 68.9 22.9Q69.4 22.1 70.2 21.7Q71.0 21.2 72.2 21.2Q73.4 21.2 74.2 21.7Q75.0 22.1 75.5 22.9Q76.1 23.8 76.3 25.0Q76.6 26.2 76.6 27.7Q76.6 29.3 76.3 30.5Q76.1 31.7 75.5 32.5Q75.0 33.3 74.2 33.8Q73.4 34.2 72.2 34.2ZM72.2 32.9Q73.0 32.9 73.5 32.6Q74.0 32.3 74.3 31.8Q74.7 31.2 74.8 30.5Q75.0 29.7 75.0 28.7V26.7Q75.0 25.8 74.8 25.0Q74.7 24.2 74.3 23.7Q74.0 23.1 73.5 22.8Q73.0 22.5 72.2 22.5Q71.4 22.5 70.9 22.8Q70.4 23.1 70.1 23.7Q69.7 24.2 69.6 25.0Q69.4 25.8 69.4 26.7V28.7Q69.4 29.7 69.6 30.5Q69.7 31.2 70.1 31.8Q70.4 32.3 70.9 32.6Q71.4 32.9 72.2 32.9Z M79.2 34.0 78.2 21.4H79.6L80.1 28.6L80.4 32.4H80.5L82.2 24.7H83.9L85.5 32.4H85.7L85.9 28.6L86.5 21.4H87.8L86.8 34.0H84.6L83.1 26.5H82.9L81.4 34.0Z" fill="#6F6A63"/><path id="strip-line" d="M150.3 34.2Q148.9 34.2 147.8 33.7Q146.7 33.2 146.0 32.4L147.0 31.6Q147.6 32.3 148.4 32.6Q149.2 33.0 150.3 33.0Q151.4 33.0 152.1 32.6Q152.8 32.2 152.8 31.4Q152.8 31.0 152.7 30.8Q152.5 30.6 152.3 30.4Q152.1 30.3 151.8 30.2Q151.5 30.1 151.2 30.1L149.7 29.8Q149.2 29.8 148.7 29.6Q148.1 29.5 147.6 29.2Q147.2 29.0 146.8 28.5Q146.5 28.0 146.5 27.3Q146.5 26.6 146.8 26.1Q147.1 25.5 147.6 25.2Q148.1 24.8 148.8 24.7Q149.5 24.5 150.3 24.5Q151.5 24.5 152.5 24.9Q153.4 25.3 154.1 26.0L153.1 26.9Q153.0 26.7 152.7 26.5Q152.5 26.3 152.1 26.1Q151.8 25.9 151.3 25.8Q150.8 25.7 150.2 25.7Q149.1 25.7 148.5 26.1Q148.0 26.5 148.0 27.2Q148.0 27.5 148.1 27.8Q148.2 28.0 148.5 28.2Q148.7 28.3 149.0 28.4Q149.3 28.5 149.6 28.5L151.0 28.7Q151.6 28.8 152.1 28.9Q152.7 29.1 153.1 29.3Q153.6 29.6 153.9 30.1Q154.2 30.6 154.2 31.3Q154.2 32.7 153.2 33.5Q152.1 34.2 150.3 34.2Z M157.4 20.7H158.8V26.2H158.9Q159.0 25.9 159.2 25.6Q159.5 25.3 159.8 25.0Q160.1 24.8 160.5 24.6Q160.9 24.5 161.5 24.5Q163.0 24.5 163.9 25.4Q164.7 26.4 164.7 28.0V34.0H163.3V28.3Q163.3 27.0 162.7 26.4Q162.2 25.8 161.1 25.8Q160.7 25.8 160.3 25.9Q159.8 26.0 159.5 26.2Q159.2 26.4 159.0 26.8Q158.8 27.1 158.8 27.6V34.0H157.4Z M172.4 22.7Q171.7 22.7 171.5 22.4Q171.2 22.1 171.2 21.7V21.5Q171.2 21.1 171.5 20.8Q171.7 20.5 172.4 20.5Q173.0 20.5 173.3 20.8Q173.5 21.1 173.5 21.5V21.7Q173.5 22.1 173.3 22.4Q173.0 22.7 172.4 22.7ZM168.3 32.8H171.7V25.9H168.3V24.7H173.1V32.8H176.2V34.0H168.3Z M178.9 24.7H180.4V26.2H180.4Q181.3 24.5 183.3 24.5Q185.0 24.5 186.0 25.8Q186.9 27.1 186.9 29.4Q186.9 31.7 186.0 32.9Q185.0 34.2 183.3 34.2Q181.3 34.2 180.4 32.5H180.4V37.6H178.9ZM182.7 32.9Q184.0 32.9 184.7 32.2Q185.4 31.4 185.4 30.1V28.6Q185.4 27.3 184.7 26.5Q184.0 25.8 182.7 25.8Q182.2 25.8 181.8 25.9Q181.4 26.0 181.1 26.3Q180.7 26.5 180.5 26.9Q180.4 27.2 180.4 27.7V31.0Q180.4 31.5 180.5 31.8Q180.7 32.2 181.1 32.4Q181.4 32.7 181.8 32.8Q182.2 32.9 182.7 32.9Z M189.7 24.7H191.2V26.2H191.2Q192.1 24.5 194.1 24.5Q195.8 24.5 196.8 25.8Q197.7 27.1 197.7 29.4Q197.7 31.7 196.8 32.9Q195.8 34.2 194.1 34.2Q192.1 34.2 191.2 32.5H191.2V37.6H189.7ZM193.5 32.9Q194.8 32.9 195.5 32.2Q196.2 31.4 196.2 30.1V28.6Q196.2 27.3 195.5 26.5Q194.8 25.8 193.5 25.8Q193.0 25.8 192.6 25.9Q192.2 26.0 191.9 26.3Q191.5 26.5 191.3 26.9Q191.2 27.2 191.2 27.7V31.0Q191.2 31.5 191.3 31.8Q191.5 32.2 191.9 32.4Q192.2 32.7 192.6 32.8Q193.0 32.9 193.5 32.9Z M204.8 22.7Q204.1 22.7 203.9 22.4Q203.6 22.1 203.6 21.7V21.5Q203.6 21.1 203.9 20.8Q204.1 20.5 204.8 20.5Q205.4 20.5 205.7 20.8Q205.9 21.1 205.9 21.5V21.7Q205.9 22.1 205.7 22.4Q205.4 22.7 204.8 22.7ZM200.7 32.8H204.1V25.9H200.7V24.7H205.5V32.8H208.6V34.0H200.7Z M211.4 34.0V24.7H212.8V26.2H212.9Q213.0 25.9 213.2 25.6Q213.5 25.3 213.8 25.0Q214.1 24.8 214.5 24.6Q214.9 24.5 215.5 24.5Q217.0 24.5 217.9 25.4Q218.7 26.4 218.7 28.0V34.0H217.3V28.3Q217.3 27.0 216.7 26.4Q216.2 25.8 215.1 25.8Q214.7 25.8 214.3 25.9Q213.8 26.0 213.5 26.2Q213.2 26.4 213.0 26.8Q212.8 27.1 212.8 27.6V34.0Z M230.5 35.1Q230.5 36.5 229.3 37.1Q228.2 37.8 225.8 37.8Q223.6 37.8 222.6 37.2Q221.6 36.6 221.6 35.5Q221.6 34.8 222.0 34.3Q222.4 33.9 223.1 33.7V33.5Q222.7 33.3 222.5 33.0Q222.3 32.7 222.3 32.2Q222.3 31.5 222.8 31.2Q223.2 30.8 224.0 30.6V30.5Q223.1 30.2 222.6 29.4Q222.1 28.7 222.1 27.7Q222.1 27.0 222.4 26.4Q222.7 25.8 223.1 25.4Q223.6 25.0 224.3 24.7Q224.9 24.5 225.7 24.5Q226.8 24.5 227.6 24.9V24.7Q227.6 24.2 227.8 23.8Q228.1 23.5 228.7 23.5H230.4V24.7H228.3V25.3Q228.8 25.8 229.1 26.4Q229.4 27.0 229.4 27.7Q229.4 28.4 229.1 29.0Q228.8 29.6 228.4 30.0Q227.9 30.4 227.2 30.7Q226.6 30.9 225.7 30.9Q225.5 30.9 225.3 30.9Q225.1 30.9 224.9 30.8Q224.6 30.9 224.4 30.9Q224.2 31.0 224.0 31.2Q223.8 31.3 223.7 31.5Q223.5 31.7 223.5 31.9Q223.5 32.3 223.9 32.4Q224.4 32.6 225.0 32.6H227.1Q228.9 32.6 229.7 33.3Q230.5 33.9 230.5 35.1ZM229.1 35.1Q229.1 34.6 228.7 34.2Q228.2 33.9 227.1 33.9H223.9Q223.0 34.3 223.0 35.2Q223.0 35.8 223.5 36.2Q223.9 36.7 225.1 36.7H226.5Q227.7 36.7 228.4 36.3Q229.1 35.9 229.1 35.1ZM225.7 29.8Q226.8 29.8 227.3 29.3Q227.9 28.8 227.9 28.0V27.4Q227.9 26.6 227.3 26.1Q226.8 25.6 225.7 25.6Q224.7 25.6 224.2 26.1Q223.7 26.6 223.7 27.4V28.0Q223.7 28.8 224.2 29.3Q224.7 29.8 225.7 29.8Z M243.0 34.0V24.7H244.3V25.8H244.4Q244.6 25.3 245.0 24.9Q245.4 24.5 246.2 24.5Q247.0 24.5 247.4 24.9Q247.8 25.3 247.9 26.0H247.9Q248.2 25.3 248.6 24.9Q249.1 24.5 249.9 24.5Q251.1 24.5 251.4 25.3Q251.8 26.1 251.8 27.6V34.0H250.5V27.8Q250.5 26.6 250.3 26.1Q250.0 25.7 249.4 25.7Q248.8 25.7 248.4 26.1Q248.1 26.4 248.1 27.2V34.0H246.7V27.8Q246.7 26.6 246.5 26.1Q246.2 25.7 245.6 25.7Q245.0 25.7 244.7 26.1Q244.3 26.4 244.3 27.2V34.0Z M260.4 32.5H260.3Q260.2 32.8 260.0 33.1Q259.7 33.5 259.4 33.7Q259.1 33.9 258.7 34.1Q258.3 34.2 257.7 34.2Q256.2 34.2 255.3 33.3Q254.5 32.4 254.5 30.7V24.7H255.9V30.4Q255.9 31.7 256.5 32.3Q257.0 32.9 258.1 32.9Q258.5 32.9 258.9 32.8Q259.4 32.7 259.7 32.5Q260.0 32.3 260.2 32.0Q260.4 31.6 260.4 31.2V24.7H261.8V34.0H260.4Z M265.0 32.8H268.3V21.9H265.0V20.7H269.7V32.8H273.0V34.0H265.0Z M280.3 34.0Q279.2 34.0 278.7 33.4Q278.2 32.8 278.2 31.9V25.9H275.1V24.7H277.4Q277.9 24.7 278.1 24.5Q278.3 24.3 278.3 23.9V21.4H279.6V24.7H283.9V25.9H279.6V32.8H283.9V34.0Z M291.2 22.7Q290.5 22.7 290.3 22.4Q290.0 22.1 290.0 21.7V21.5Q290.0 21.1 290.3 20.8Q290.5 20.5 291.2 20.5Q291.8 20.5 292.1 20.8Q292.3 21.1 292.3 21.5V21.7Q292.3 22.1 292.1 22.4Q291.8 22.7 291.2 22.7ZM287.1 32.8H290.5V25.9H287.1V24.7H291.9V32.8H295.0V34.0H287.1Z M298.8 29.3V27.8H304.0V29.3Z M315.7 34.0Q314.9 34.0 314.5 33.6Q314.1 33.1 314.1 32.5H314.0Q313.7 33.3 313.0 33.8Q312.3 34.2 311.2 34.2Q309.7 34.2 308.9 33.5Q308.0 32.7 308.0 31.4Q308.0 30.1 308.9 29.4Q309.9 28.7 312.0 28.7H314.0V27.8Q314.0 26.7 313.4 26.2Q312.8 25.7 311.8 25.7Q310.8 25.7 310.2 26.1Q309.6 26.5 309.3 27.1L308.3 26.4Q308.5 26.0 308.8 25.7Q309.1 25.3 309.5 25.1Q310.0 24.8 310.6 24.6Q311.1 24.5 311.8 24.5Q313.5 24.5 314.4 25.3Q315.4 26.2 315.4 27.6V32.7H316.7V34.0ZM311.4 33.0Q312.0 33.0 312.4 32.9Q312.9 32.7 313.2 32.5Q313.6 32.3 313.8 32.0Q314.0 31.7 314.0 31.3V29.8H312.0Q310.7 29.8 310.1 30.1Q309.5 30.5 309.5 31.2V31.6Q309.5 32.3 310.0 32.6Q310.5 33.0 311.4 33.0Z M327.7 35.1Q327.7 36.5 326.5 37.1Q325.4 37.8 323.0 37.8Q320.8 37.8 319.8 37.2Q318.8 36.6 318.8 35.5Q318.8 34.8 319.2 34.3Q319.6 33.9 320.3 33.7V33.5Q319.9 33.3 319.7 33.0Q319.5 32.7 319.5 32.2Q319.5 31.5 320.0 31.2Q320.4 30.8 321.2 30.6V30.5Q320.3 30.2 319.8 29.4Q319.3 28.7 319.3 27.7Q319.3 27.0 319.6 26.4Q319.9 25.8 320.3 25.4Q320.8 25.0 321.5 24.7Q322.1 24.5 322.9 24.5Q324.0 24.5 324.8 24.9V24.7Q324.8 24.2 325.0 23.8Q325.3 23.5 325.9 23.5H327.6V24.7H325.5V25.3Q326.0 25.8 326.3 26.4Q326.6 27.0 326.6 27.7Q326.6 28.4 326.3 29.0Q326.0 29.6 325.6 30.0Q325.1 30.4 324.4 30.7Q323.8 30.9 322.9 30.9Q322.7 30.9 322.5 30.9Q322.3 30.9 322.1 30.8Q321.8 30.9 321.6 30.9Q321.4 31.0 321.2 31.2Q321.0 31.3 320.9 31.5Q320.7 31.7 320.7 31.9Q320.7 32.3 321.1 32.4Q321.6 32.6 322.2 32.6H324.3Q326.1 32.6 326.9 33.3Q327.7 33.9 327.7 35.1ZM326.3 35.1Q326.3 34.6 325.9 34.2Q325.4 33.9 324.3 33.9H321.1Q320.2 34.3 320.2 35.2Q320.2 35.8 320.7 36.2Q321.1 36.7 322.3 36.7H323.7Q324.9 36.7 325.6 36.3Q326.3 35.9 326.3 35.1ZM322.9 29.8Q324.0 29.8 324.5 29.3Q325.1 28.8 325.1 28.0V27.4Q325.1 26.6 324.5 26.1Q324.0 25.6 322.9 25.6Q321.9 25.6 321.4 26.1Q320.9 26.6 320.9 27.4V28.0Q320.9 28.8 321.4 29.3Q321.9 29.8 322.9 29.8Z M334.0 34.2Q333.0 34.2 332.2 33.9Q331.4 33.5 330.8 32.9Q330.2 32.3 329.9 31.4Q329.6 30.5 329.6 29.4Q329.6 28.3 329.9 27.4Q330.2 26.5 330.8 25.8Q331.4 25.2 332.1 24.8Q332.9 24.5 333.9 24.5Q334.8 24.5 335.6 24.8Q336.3 25.2 336.9 25.8Q337.4 26.4 337.7 27.2Q338.0 28.0 338.0 29.0V29.7H331.1V30.1Q331.1 30.8 331.3 31.3Q331.5 31.8 331.9 32.2Q332.3 32.6 332.8 32.8Q333.3 33.0 334.0 33.0Q334.9 33.0 335.6 32.5Q336.3 32.1 336.6 31.4L337.7 32.1Q337.3 33.0 336.3 33.6Q335.3 34.2 334.0 34.2ZM333.9 25.7Q333.3 25.7 332.8 25.9Q332.3 26.1 331.9 26.5Q331.5 26.9 331.3 27.4Q331.1 27.9 331.1 28.5V28.6H336.4V28.4Q336.4 27.8 336.3 27.3Q336.1 26.8 335.7 26.4Q335.4 26.1 334.9 25.9Q334.4 25.7 333.9 25.7Z M341.0 34.0V24.7H342.4V26.2H342.5Q342.6 25.9 342.8 25.6Q343.1 25.3 343.4 25.0Q343.7 24.8 344.1 24.6Q344.5 24.5 345.1 24.5Q346.6 24.5 347.5 25.4Q348.3 26.4 348.3 28.0V34.0H346.9V28.3Q346.9 27.0 346.3 26.4Q345.8 25.8 344.7 25.8Q344.3 25.8 343.9 25.9Q343.4 26.0 343.1 26.2Q342.8 26.4 342.6 26.8Q342.4 27.1 342.4 27.6V34.0Z M355.9 34.0Q354.8 34.0 354.3 33.4Q353.8 32.8 353.8 31.9V25.9H350.7V24.7H353.0Q353.5 24.7 353.7 24.5Q353.9 24.3 353.9 23.9V21.4H355.2V24.7H359.5V25.9H355.2V32.8H359.5V34.0Z M377.1 34.2Q375.7 34.2 374.6 33.7Q373.5 33.2 372.8 32.4L373.8 31.6Q374.4 32.3 375.2 32.6Q376.0 33.0 377.1 33.0Q378.2 33.0 378.9 32.6Q379.6 32.2 379.6 31.4Q379.6 31.0 379.5 30.8Q379.3 30.6 379.1 30.4Q378.9 30.3 378.6 30.2Q378.3 30.1 378.0 30.1L376.5 29.8Q376.0 29.8 375.5 29.6Q374.9 29.5 374.4 29.2Q374.0 29.0 373.6 28.5Q373.3 28.0 373.3 27.3Q373.3 26.6 373.6 26.1Q373.9 25.5 374.4 25.2Q374.9 24.8 375.6 24.7Q376.3 24.5 377.1 24.5Q378.3 24.5 379.3 24.9Q380.2 25.3 380.9 26.0L379.9 26.9Q379.8 26.7 379.5 26.5Q379.3 26.3 378.9 26.1Q378.6 25.9 378.1 25.8Q377.6 25.7 377.0 25.7Q375.9 25.7 375.3 26.1Q374.8 26.5 374.8 27.2Q374.8 27.5 374.9 27.8Q375.0 28.0 375.3 28.2Q375.5 28.3 375.8 28.4Q376.1 28.5 376.4 28.5L377.8 28.7Q378.4 28.8 378.9 28.9Q379.5 29.1 379.9 29.3Q380.4 29.6 380.7 30.1Q381.0 30.6 381.0 31.3Q381.0 32.7 380.0 33.5Q378.9 34.2 377.1 34.2Z M390.8 24.7H392.2L387.6 36.0Q387.5 36.4 387.3 36.7Q387.1 37.0 386.8 37.2Q386.5 37.4 386.2 37.5Q385.8 37.6 385.3 37.6H383.9V36.4H386.1L387.1 33.8L383.4 24.7H384.8L386.4 28.6L387.8 32.1H387.9L389.2 28.6Z M398.7 34.2Q397.3 34.2 396.2 33.7Q395.1 33.2 394.4 32.4L395.4 31.6Q396.0 32.3 396.8 32.6Q397.6 33.0 398.7 33.0Q399.8 33.0 400.5 32.6Q401.2 32.2 401.2 31.4Q401.2 31.0 401.1 30.8Q400.9 30.6 400.7 30.4Q400.5 30.3 400.2 30.2Q399.9 30.1 399.6 30.1L398.1 29.8Q397.6 29.8 397.1 29.6Q396.5 29.5 396.0 29.2Q395.6 29.0 395.2 28.5Q394.9 28.0 394.9 27.3Q394.9 26.6 395.2 26.1Q395.5 25.5 396.0 25.2Q396.5 24.8 397.2 24.7Q397.9 24.5 398.7 24.5Q399.9 24.5 400.9 24.9Q401.8 25.3 402.5 26.0L401.5 26.9Q401.4 26.7 401.1 26.5Q400.9 26.3 400.5 26.1Q400.2 25.9 399.7 25.8Q399.2 25.7 398.6 25.7Q397.5 25.7 396.9 26.1Q396.4 26.5 396.4 27.2Q396.4 27.5 396.5 27.8Q396.6 28.0 396.9 28.2Q397.1 28.3 397.4 28.4Q397.7 28.5 398.0 28.5L399.4 28.7Q400.0 28.8 400.5 28.9Q401.1 29.1 401.5 29.3Q402.0 29.6 402.3 30.1Q402.6 30.6 402.6 31.3Q402.6 32.7 401.6 33.5Q400.5 34.2 398.7 34.2Z M409.9 34.0Q408.8 34.0 408.3 33.4Q407.8 32.8 407.8 31.9V25.9H404.7V24.7H407.0Q407.5 24.7 407.7 24.5Q407.9 24.3 407.9 23.9V21.4H409.2V24.7H413.5V25.9H409.2V32.8H413.5V34.0Z M420.4 34.2Q419.4 34.2 418.6 33.9Q417.8 33.5 417.2 32.9Q416.6 32.3 416.3 31.4Q416.0 30.5 416.0 29.4Q416.0 28.3 416.3 27.4Q416.6 26.5 417.2 25.8Q417.8 25.2 418.5 24.8Q419.3 24.5 420.3 24.5Q421.2 24.5 422.0 24.8Q422.7 25.2 423.3 25.8Q423.8 26.4 424.1 27.2Q424.4 28.0 424.4 29.0V29.7H417.5V30.1Q417.5 30.8 417.7 31.3Q417.9 31.8 418.3 32.2Q418.7 32.6 419.2 32.8Q419.7 33.0 420.4 33.0Q421.3 33.0 422.0 32.5Q422.7 32.1 423.0 31.4L424.1 32.1Q423.7 33.0 422.7 33.6Q421.7 34.2 420.4 34.2ZM420.3 25.7Q419.7 25.7 419.2 25.9Q418.7 26.1 418.3 26.5Q417.9 26.9 417.7 27.4Q417.5 27.9 417.5 28.5V28.6H422.8V28.4Q422.8 27.8 422.7 27.3Q422.5 26.8 422.1 26.4Q421.8 26.1 421.3 25.9Q420.8 25.7 420.3 25.7Z M426.6 34.0V24.7H427.9V25.8H428.0Q428.2 25.3 428.6 24.9Q429.0 24.5 429.8 24.5Q430.6 24.5 431.0 24.9Q431.4 25.3 431.5 26.0H431.5Q431.8 25.3 432.2 24.9Q432.7 24.5 433.5 24.5Q434.7 24.5 435.0 25.3Q435.4 26.1 435.4 27.6V34.0H434.1V27.8Q434.1 26.6 433.9 26.1Q433.6 25.7 433.0 25.7Q432.4 25.7 432.0 26.1Q431.7 26.4 431.7 27.2V34.0H430.3V27.8Q430.3 26.6 430.1 26.1Q429.8 25.7 429.2 25.7Q428.6 25.7 428.3 26.1Q427.9 26.4 427.9 27.2V34.0Z M441.9 34.2Q440.5 34.2 439.4 33.7Q438.3 33.2 437.6 32.4L438.6 31.6Q439.2 32.3 440.0 32.6Q440.8 33.0 441.9 33.0Q443.0 33.0 443.7 32.6Q444.4 32.2 444.4 31.4Q444.4 31.0 444.3 30.8Q444.1 30.6 443.9 30.4Q443.7 30.3 443.4 30.2Q443.1 30.1 442.8 30.1L441.3 29.8Q440.8 29.8 440.3 29.6Q439.7 29.5 439.2 29.2Q438.8 29.0 438.4 28.5Q438.1 28.0 438.1 27.3Q438.1 26.6 438.4 26.1Q438.7 25.5 439.2 25.2Q439.7 24.8 440.4 24.7Q441.1 24.5 441.9 24.5Q443.1 24.5 444.1 24.9Q445.0 25.3 445.7 26.0L444.7 26.9Q444.6 26.7 444.3 26.5Q444.1 26.3 443.7 26.1Q443.4 25.9 442.9 25.8Q442.4 25.7 441.8 25.7Q440.7 25.7 440.1 26.1Q439.6 26.5 439.6 27.2Q439.6 27.5 439.7 27.8Q439.8 28.0 440.1 28.2Q440.3 28.3 440.6 28.4Q440.9 28.5 441.2 28.5L442.6 28.7Q443.2 28.8 443.7 28.9Q444.3 29.1 444.7 29.3Q445.2 29.6 445.5 30.1Q445.8 30.6 445.8 31.3Q445.8 32.7 444.8 33.5Q443.7 34.2 441.9 34.2Z M458.5 24.7H459.8L460.9 32.7H461.0L462.6 24.7H464.2L465.8 32.7H466.0L467.0 24.7H468.3L466.8 34.0H465.0L463.5 26.2H463.3L461.8 34.0H460.0Z M474.8 22.7Q474.1 22.7 473.9 22.4Q473.6 22.1 473.6 21.7V21.5Q473.6 21.1 473.9 20.8Q474.1 20.5 474.8 20.5Q475.4 20.5 475.7 20.8Q475.9 21.1 475.9 21.5V21.7Q475.9 22.1 475.7 22.4Q475.4 22.7 474.8 22.7ZM470.7 32.8H474.1V25.9H470.7V24.7H475.5V32.8H478.6V34.0H470.7Z M485.5 34.0Q484.4 34.0 483.9 33.4Q483.4 32.8 483.4 31.9V25.9H480.3V24.7H482.6Q483.1 24.7 483.3 24.5Q483.5 24.3 483.5 23.9V21.4H484.8V24.7H489.1V25.9H484.8V32.8H489.1V34.0Z M492.2 20.7H493.6V26.2H493.7Q493.8 25.9 494.0 25.6Q494.3 25.3 494.6 25.0Q494.9 24.8 495.3 24.6Q495.7 24.5 496.3 24.5Q497.8 24.5 498.7 25.4Q499.5 26.4 499.5 28.0V34.0H498.1V28.3Q498.1 27.0 497.5 26.4Q497.0 25.8 495.9 25.8Q495.5 25.8 495.1 25.9Q494.6 26.0 494.3 26.2Q494.0 26.4 493.8 26.8Q493.6 27.1 493.6 27.6V34.0H492.2Z M517.6 34.2Q516.6 34.2 515.8 33.9Q515.0 33.5 514.4 32.9Q513.8 32.3 513.5 31.4Q513.2 30.5 513.2 29.4Q513.2 28.3 513.5 27.4Q513.8 26.5 514.4 25.8Q515.0 25.2 515.7 24.8Q516.5 24.5 517.5 24.5Q518.4 24.5 519.2 24.8Q519.9 25.2 520.5 25.8Q521.0 26.4 521.3 27.2Q521.6 28.0 521.6 29.0V29.7H514.7V30.1Q514.7 30.8 514.9 31.3Q515.1 31.8 515.5 32.2Q515.9 32.6 516.4 32.8Q516.9 33.0 517.6 33.0Q518.5 33.0 519.2 32.5Q519.9 32.1 520.2 31.4L521.3 32.1Q520.9 33.0 519.9 33.6Q518.9 34.2 517.6 34.2ZM517.5 25.7Q516.9 25.7 516.4 25.9Q515.9 26.1 515.5 26.5Q515.1 26.9 514.9 27.4Q514.7 27.9 514.7 28.5V28.6H520.0V28.4Q520.0 27.8 519.9 27.3Q519.7 26.8 519.3 26.4Q519.0 26.1 518.5 25.9Q518.0 25.7 517.5 25.7Z M527.3 34.0 524.0 24.7H525.4L526.7 28.6L528.2 32.8H528.3L529.7 28.6L531.0 24.7H532.4L529.1 34.0Z M542.5 34.0Q541.7 34.0 541.3 33.6Q540.9 33.1 540.9 32.5H540.8Q540.5 33.3 539.8 33.8Q539.1 34.2 538.0 34.2Q536.5 34.2 535.7 33.5Q534.8 32.7 534.8 31.4Q534.8 30.1 535.7 29.4Q536.7 28.7 538.8 28.7H540.8V27.8Q540.8 26.7 540.2 26.2Q539.6 25.7 538.6 25.7Q537.6 25.7 537.0 26.1Q536.4 26.5 536.1 27.1L535.1 26.4Q535.3 26.0 535.6 25.7Q535.9 25.3 536.3 25.1Q536.8 24.8 537.4 24.6Q537.9 24.5 538.6 24.5Q540.3 24.5 541.2 25.3Q542.2 26.2 542.2 27.6V32.7H543.5V34.0ZM538.2 33.0Q538.8 33.0 539.2 32.9Q539.7 32.7 540.0 32.5Q540.4 32.3 540.6 32.0Q540.8 31.7 540.8 31.3V29.8H538.8Q537.5 29.8 536.9 30.1Q536.3 30.5 536.3 31.2V31.6Q536.3 32.3 536.8 32.6Q537.3 33.0 538.2 33.0Z M545.8 32.8H549.1V21.9H545.8V20.7H550.5V32.8H553.8V34.0H545.8Z M560.7 34.2Q559.3 34.2 558.2 33.7Q557.1 33.2 556.4 32.4L557.4 31.6Q558.0 32.3 558.8 32.6Q559.6 33.0 560.7 33.0Q561.8 33.0 562.5 32.6Q563.2 32.2 563.2 31.4Q563.2 31.0 563.1 30.8Q562.9 30.6 562.7 30.4Q562.5 30.3 562.2 30.2Q561.9 30.1 561.6 30.1L560.1 29.8Q559.6 29.8 559.1 29.6Q558.5 29.5 558.0 29.2Q557.6 29.0 557.2 28.5Q556.9 28.0 556.9 27.3Q556.9 26.6 557.2 26.1Q557.5 25.5 558.0 25.2Q558.5 24.8 559.2 24.7Q559.9 24.5 560.7 24.5Q561.9 24.5 562.9 24.9Q563.8 25.3 564.5 26.0L563.5 26.9Q563.4 26.7 563.1 26.5Q562.9 26.3 562.5 26.1Q562.2 25.9 561.7 25.8Q561.2 25.7 560.6 25.7Q559.5 25.7 558.9 26.1Q558.4 26.5 558.4 27.2Q558.4 27.5 558.5 27.8Q558.6 28.0 558.9 28.2Q559.1 28.3 559.4 28.4Q559.7 28.5 560.0 28.5L561.4 28.7Q562.0 28.8 562.5 28.9Q563.1 29.1 563.5 29.3Q564.0 29.6 564.3 30.1Q564.6 30.6 564.6 31.3Q564.6 32.7 563.6 33.5Q562.5 34.2 560.7 34.2Z M585.7 34.0Q584.9 34.0 584.5 33.6Q584.1 33.1 584.1 32.5H584.0Q583.7 33.3 583.0 33.8Q582.3 34.2 581.2 34.2Q579.7 34.2 578.9 33.5Q578.0 32.7 578.0 31.4Q578.0 30.1 578.9 29.4Q579.9 28.7 582.0 28.7H584.0V27.8Q584.0 26.7 583.4 26.2Q582.8 25.7 581.8 25.7Q580.8 25.7 580.2 26.1Q579.6 26.5 579.3 27.1L578.3 26.4Q578.5 26.0 578.8 25.7Q579.1 25.3 579.5 25.1Q580.0 24.8 580.6 24.6Q581.1 24.5 581.8 24.5Q583.5 24.5 584.4 25.3Q585.4 26.2 585.4 27.6V32.7H586.7V34.0ZM581.4 33.0Q582.0 33.0 582.4 32.9Q582.9 32.7 583.2 32.5Q583.6 32.3 583.8 32.0Q584.0 31.7 584.0 31.3V29.8H582.0Q580.7 29.8 580.1 30.1Q579.5 30.5 579.5 31.2V31.6Q579.5 32.3 580.0 32.6Q580.5 33.0 581.4 33.0Z M589.4 34.0V24.7H590.8V26.2H590.9Q591.0 25.9 591.2 25.6Q591.5 25.3 591.8 25.0Q592.1 24.8 592.5 24.6Q592.9 24.5 593.5 24.5Q595.0 24.5 595.9 25.4Q596.7 26.4 596.7 28.0V34.0H595.3V28.3Q595.3 27.0 594.7 26.4Q594.2 25.8 593.1 25.8Q592.7 25.8 592.3 25.9Q591.8 26.0 591.5 26.2Q591.2 26.4 591.0 26.8Q590.8 27.1 590.8 27.6V34.0Z M606.0 32.5H606.0Q605.1 34.2 603.1 34.2Q601.4 34.2 600.4 32.9Q599.5 31.7 599.5 29.4Q599.5 27.1 600.4 25.8Q601.4 24.5 603.1 24.5Q605.1 24.5 606.0 26.2H606.0V20.7H607.5V34.0H606.0ZM603.7 32.9Q604.2 32.9 604.6 32.8Q605.0 32.7 605.3 32.4Q605.7 32.2 605.9 31.8Q606.0 31.5 606.0 31.0V27.7Q606.0 27.2 605.9 26.9Q605.7 26.5 605.3 26.3Q605.0 26.0 604.6 25.9Q604.2 25.8 603.7 25.8Q602.4 25.8 601.7 26.5Q601.0 27.3 601.0 28.6V30.1Q601.0 31.4 601.7 32.2Q602.4 32.9 603.7 32.9Z M628.9 34.0Q628.1 34.0 627.7 33.6Q627.3 33.1 627.3 32.5H627.2Q626.9 33.3 626.2 33.8Q625.5 34.2 624.4 34.2Q622.9 34.2 622.1 33.5Q621.2 32.7 621.2 31.4Q621.2 30.1 622.1 29.4Q623.1 28.7 625.2 28.7H627.2V27.8Q627.2 26.7 626.6 26.2Q626.0 25.7 624.9 25.7Q624.0 25.7 623.4 26.1Q622.8 26.5 622.5 27.1L621.5 26.4Q621.7 26.0 622.0 25.7Q622.3 25.3 622.7 25.1Q623.2 24.8 623.8 24.6Q624.3 24.5 625.0 24.5Q626.7 24.5 627.6 25.3Q628.6 26.2 628.6 27.6V32.7H629.9V34.0ZM624.6 33.0Q625.2 33.0 625.6 32.9Q626.1 32.7 626.4 32.5Q626.8 32.3 627.0 32.0Q627.2 31.7 627.2 31.3V29.8H625.2Q623.9 29.8 623.3 30.1Q622.7 30.5 622.7 31.2V31.6Q622.7 32.3 623.2 32.6Q623.7 33.0 624.6 33.0Z M643.3 24.7H644.7V26.2H644.8Q645.7 24.5 647.7 24.5Q649.4 24.5 650.4 25.8Q651.3 27.1 651.3 29.4Q651.3 31.7 650.4 32.9Q649.4 34.2 647.7 34.2Q645.7 34.2 644.8 32.5H644.7V37.6H643.3ZM647.1 32.9Q648.4 32.9 649.1 32.2Q649.8 31.4 649.8 30.1V28.6Q649.8 27.3 649.1 26.5Q648.4 25.8 647.1 25.8Q646.6 25.8 646.2 25.9Q645.8 26.0 645.5 26.3Q645.1 26.5 644.9 26.9Q644.7 27.2 644.7 27.7V31.0Q644.7 31.5 644.9 31.8Q645.1 32.2 645.5 32.4Q645.8 32.7 646.2 32.8Q646.6 32.9 647.1 32.9Z M661.3 34.0Q660.5 34.0 660.1 33.6Q659.7 33.1 659.7 32.5H659.6Q659.3 33.3 658.6 33.8Q657.9 34.2 656.8 34.2Q655.3 34.2 654.5 33.5Q653.6 32.7 653.6 31.4Q653.6 30.1 654.5 29.4Q655.5 28.7 657.6 28.7H659.6V27.8Q659.6 26.7 659.0 26.2Q658.4 25.7 657.3 25.7Q656.4 25.7 655.8 26.1Q655.2 26.5 654.9 27.1L653.9 26.4Q654.1 26.0 654.4 25.7Q654.7 25.3 655.1 25.1Q655.6 24.8 656.2 24.6Q656.7 24.5 657.4 24.5Q659.1 24.5 660.0 25.3Q661.0 26.2 661.0 27.6V32.7H662.3V34.0ZM657.0 33.0Q657.6 33.0 658.0 32.9Q658.5 32.7 658.8 32.5Q659.2 32.3 659.4 32.0Q659.6 31.7 659.6 31.3V29.8H657.6Q656.3 29.8 655.7 30.1Q655.1 30.5 655.1 31.2V31.6Q655.1 32.3 655.6 32.6Q656.1 33.0 657.0 33.0Z M664.9 24.7H666.3V26.2H666.4Q667.3 24.5 669.3 24.5Q671.0 24.5 672.0 25.8Q672.9 27.1 672.9 29.4Q672.9 31.7 672.0 32.9Q671.0 34.2 669.3 34.2Q667.3 34.2 666.4 32.5H666.3V37.6H664.9ZM668.7 32.9Q670.0 32.9 670.7 32.2Q671.4 31.4 671.4 30.1V28.6Q671.4 27.3 670.7 26.5Q670.0 25.8 668.7 25.8Q668.2 25.8 667.8 25.9Q667.4 26.0 667.1 26.3Q666.7 26.5 666.5 26.9Q666.3 27.2 666.3 27.7V31.0Q666.3 31.5 666.5 31.8Q666.7 32.2 667.1 32.4Q667.4 32.7 667.8 32.8Q668.2 32.9 668.7 32.9Z M679.6 34.2Q678.6 34.2 677.8 33.9Q677.0 33.5 676.4 32.9Q675.8 32.3 675.5 31.4Q675.2 30.5 675.2 29.4Q675.2 28.3 675.5 27.4Q675.8 26.5 676.4 25.8Q677.0 25.2 677.7 24.8Q678.5 24.5 679.5 24.5Q680.4 24.5 681.2 24.8Q681.9 25.2 682.5 25.8Q683.0 26.4 683.3 27.2Q683.6 28.0 683.6 29.0V29.7H676.7V30.1Q676.7 30.8 676.9 31.3Q677.1 31.8 677.5 32.2Q677.9 32.6 678.4 32.8Q678.9 33.0 679.6 33.0Q680.5 33.0 681.2 32.5Q681.9 32.1 682.2 31.4L683.3 32.1Q682.9 33.0 681.9 33.6Q680.9 34.2 679.6 34.2ZM679.5 25.7Q678.9 25.7 678.4 25.9Q677.9 26.1 677.5 26.5Q677.1 26.9 676.9 27.4Q676.7 27.9 676.7 28.5V28.6H682.0V28.4Q682.0 27.8 681.9 27.3Q681.7 26.8 681.3 26.4Q681.0 26.1 680.5 25.9Q680.0 25.7 679.5 25.7Z M686.2 32.8H688.9V25.9H686.2V24.7H690.3V27.1H690.4Q690.7 26.0 691.5 25.3Q692.3 24.7 693.6 24.7H694.9V26.2H693.1Q691.9 26.2 691.1 26.9Q690.3 27.6 690.3 28.8V32.8H693.2V34.0H686.2Z M712.2 34.0Q711.2 34.0 710.7 33.4Q710.2 32.8 710.2 31.9V25.9H707.1V24.7H709.4Q709.9 24.7 710.1 24.5Q710.3 24.3 710.3 23.9V21.4H711.6V24.7H715.9V25.9H711.6V32.8H715.9V34.0Z M718.6 32.8H721.3V25.9H718.6V24.7H722.7V27.1H722.8Q723.1 26.0 723.9 25.3Q724.7 24.7 726.0 24.7H727.3V26.2H725.5Q724.3 26.2 723.5 26.9Q722.7 27.6 722.7 28.8V32.8H725.6V34.0H718.6Z M736.9 34.0Q736.1 34.0 735.7 33.6Q735.3 33.1 735.3 32.5H735.2Q734.9 33.3 734.2 33.8Q733.5 34.2 732.4 34.2Q730.9 34.2 730.1 33.5Q729.2 32.7 729.2 31.4Q729.2 30.1 730.1 29.4Q731.1 28.7 733.2 28.7H735.2V27.8Q735.2 26.7 734.6 26.2Q734.0 25.7 732.9 25.7Q732.0 25.7 731.4 26.1Q730.8 26.5 730.5 27.1L729.5 26.4Q729.7 26.0 730.0 25.7Q730.3 25.3 730.7 25.1Q731.2 24.8 731.8 24.6Q732.3 24.5 733.0 24.5Q734.7 24.5 735.6 25.3Q736.6 26.2 736.6 27.6V32.7H737.9V34.0ZM732.6 33.0Q733.2 33.0 733.6 32.9Q734.1 32.7 734.4 32.5Q734.8 32.3 735.0 32.0Q735.2 31.7 735.2 31.3V29.8H733.2Q731.9 29.8 731.3 30.1Q730.7 30.5 730.7 31.2V31.6Q730.7 32.3 731.2 32.6Q731.7 33.0 732.6 33.0Z M744.8 22.7Q744.1 22.7 743.9 22.4Q743.6 22.1 743.6 21.7V21.5Q743.6 21.1 743.9 20.8Q744.1 20.5 744.8 20.5Q745.4 20.5 745.7 20.8Q745.9 21.1 745.9 21.5V21.7Q745.9 22.1 745.7 22.4Q745.4 22.7 744.8 22.7ZM740.7 32.8H744.1V25.9H740.7V24.7H745.5V32.8H748.6V34.0H740.7Z M751.0 32.8H754.3V21.9H751.0V20.7H755.7V32.8H759.0V34.0H751.0Z" fill="#1C1916"/>
</svg>
